<svg xmlns="http://www.w3.org/2000/svg" viewBox="0 0 200 160" width="200" height="160"><defs><style>@font-face{font-family:&quot;Virgil&quot;;src:url(https://excalidraw.com/Virgil.woff2)}@font-face{font-family:&quot;Cascadia&quot;;src:url(https://excalidraw.com/Cascadia.woff2)}@font-face{font-family:&quot;Assistant&quot;;src:url(https://excalidraw.com/Assistant-Regular.woff2)}</style></defs><path fill="none" d="M0 0h200v160H0z"/><path d="M10 10h140M10 10h140m0 0v100m0-100v100m0 0H10m140 0H10m0 0V10m0 100V10" stroke="#1971c2" stroke-width="2" fill="none" stroke-linecap="round"/><path d="M30 30h140M30 30h140m0 0v100m0-100v100m0 0H30m140 0H30m0 0V30m0 100V30" stroke="#228be6" stroke-width="2" fill="none" stroke-linecap="round"/><path d="M50 50h140M50 50h140m0 0v100m0-100v100m0 0H50m140 0H50m0 0V50m0 100V50" stroke="#4dabf7" stroke-width="2" fill="none" stroke-linecap="round"/></svg>
