<svg version="1.1" viewBox="0.0 0.0 960.0 540.0" fill="none" stroke="none" stroke-linecap="square" stroke-miterlimit="10" xmlns:xlink="http://www.w3.org/1999/xlink" xmlns="http://www.w3.org/2000/svg"><clipPath id="g30e2c40db9d_0_25.0"><path d="m0 0l960.0 0l0 540.0l-960.0 0l0 -540.0z" clip-rule="nonzero"/></clipPath><g clip-path="url(#g30e2c40db9d_0_25.0)"><path fill="#c3e9f3" d="m0 0l960.0 0l0 540.0l-960.0 0z" fill-rule="evenodd"/><path fill="#40bbcd" d="m-0.0131233595 507.3596l960.0 0l0 57.66928l-960.0 0z" fill-rule="evenodd"/><path fill="#ffffff" fill-opacity="0.3813" d="m38.228348 504.1112c21.551994 3.8391724 51.25634 7.7888794 89.106995 11.738586c146.8816 15.082825 356.24036 22.593018 530.5991 22.593018c32.25836 0 63.31842 -0.25463867 92.56885 -0.7687988c234.15479 -4.1707153 284.01917 -18.753845 190.36084 -33.562805z" fill-rule="evenodd"/><path fill="#ffffff" d="m910.36536 517.45294c-4.7852173 0 -9.524658 0.030273438 -14.178345 0.11444092c-12.005798 0.30963135 -23.354187 0.84814453 -35.359985 0.99957275c-3.1101074 0.050476074 -6.2487793 0.07067871 -9.410339 0.07067871c-12.080139 0 -24.446106 -0.28607178 -36.486267 -0.28607178c-4.373535 0 -8.701355 0.03704834 -12.960571 0.13800049c-13.566589 0.30963135 -25.835388 1.154419 -38.62445 1.7669678c-14.35553 0.69329834 -29.620056 0.99957275 -45.147644 0.99957275c-18.4375 -0.053833008 -37.412415 -0.62939453 -55.661255 -0.62939453c-7.0720215 0 -14.029663 0.087524414 -20.81012 0.32312012c-13.96106 0.4611206 -26.36139 1.6121216 -40.190918 2.2280273c-8.615601 0.3635254 -17.465637 0.51831055 -26.470032 0.51831055c-28.796814 0 -59.20587 -1.5582886 -88.625854 -2.6689453c-29.494293 -1.1543579 -59.50888 -1.7669067 -89.12897 -1.8443604l0 0c43.060913 0.5385132 86.516266 1.918396 128.79968 4.0723877c15.264526 0.767395 30.53479 1.6121826 46.062317 1.8410034c1.3092041 0.010131836 2.612732 0.0134887695 3.9104614 0.0134887695c11.148315 0 21.99353 -0.28271484 32.62726 -0.6260376c22.182251 -0.61590576 44.238647 -1.2284546 66.94678 -1.5380859c12.783386 -0.15142822 25.703918 -0.2288208 38.62451 -0.3062744c18.649048 -0.03363037 37.315247 -0.050476074 56.01001 -0.050476074c26.435669 0 52.917114 0.03704834 79.43854 0.12792969c35.760254 0.07739258 71.64624 0.15142822 107.65796 0.84472656c0.9147339 0.07745361 1.8294678 0.07745361 2.612732 0.07745361l0 -5.761963c-8.22113 -0.07739258 -16.573792 -0.15478516 -24.794922 -0.23223877c-8.255432 -0.097595215 -16.608032 -0.1918335 -24.840576 -0.1918335z" fill-rule="evenodd"/><path fill="#000000" fill-opacity="0.0" d="m75.59055 209.87401l808.81885 0l0 60.12599l-808.81885 0z" fill-rule="evenodd"/><path fill="#515c16" d="m410.91672 228.22589l7.65625 0.03125q5.984375 0 10.53125 4.328125q4.546875 4.3125 4.546875 10.625q0 6.296875 -4.453125 10.796875q-4.4375 4.5 -10.75 4.5l-7.5625 0q-2.53125 0 -3.140625 -1.03125q-0.5 -0.859375 -0.5 -2.640625l0 -22.984375q0 -0.984375 0.0625 -1.4375q0.0625 -0.453125 0.390625 -1.078125q0.578125 -1.109375 3.21875 -1.109375zm7.65625 22.96875q2.96875 0 5.359375 -2.203125q2.40625 -2.21875 2.40625 -5.5625q0 -3.34375 -2.34375 -5.59375q-2.328125 -2.265625 -5.46875 -2.265625l-3.96875 0l0 15.625l4.015625 0zm17.766907 -10.78125q0 -0.953125 0.0625 -1.421875q0.0625 -0.484375 0.34375 -1.109375q0.578125 -1.0625 3.234375 -1.0625q1.984375 0 2.796875 0.703125q0.703125 0.578125 0.75 1.765625q0.046875 0.421875 0.046875 1.203125l0 14.46875q0 0.953125 -0.0625 1.4375q-0.0625 0.46875 -0.390625 1.078125q-0.546875 1.078125 -3.1875 1.078125q-2.609375 0 -3.1875 -1.109375q-0.28125 -0.625 -0.34375 -1.078125q-0.0625 -0.453125 -0.0625 -1.453125l0 -14.5zm2.59375 -5.671875q0 0 -1.234375 0.296875q-1.234375 0 -2.03125 -2.4375q-0.328125 -1.0 -0.328125 -1.6875q0 -0.703125 0.25 -1.078125q0.421875 -0.546875 1.53125 -0.875l6.8125 -2.109375q1.078125 -0.28125 1.25 -0.28125q1.234375 0 1.984375 2.4375q0.328125 0.984375 0.328125 1.671875q0 0.6875 -0.25 1.046875q-0.40625 0.546875 -1.53125 0.875l-6.78125 2.140625zm22.069946 4.34375q0.25 -2.3125 3.265625 -2.3125q1.625 0 2.40625 0.25q0.78125 0.25 1.09375 0.875q0.3125 0.609375 0.375 1.09375q0.0625 0.46875 0.0625 1.421875l0 14.46875q0 0.9375 -0.0625 1.421875q-0.0625 0.46875 -0.359375 1.09375q-0.578125 1.078125 -2.828125 1.078125q-2.25 0 -3.015625 -0.5625q-0.765625 -0.5625 -0.890625 -1.625q-1.53125 2.1875 -5.109375 2.1875q-3.5625 0 -6.625 -3.265625q-3.0625 -3.265625 -3.0625 -7.578125q0 -4.328125 3.078125 -7.5625q3.078125 -3.25 6.765625 -3.25q1.40625 0 2.5625 0.5q1.15625 0.484375 1.609375 0.921875q0.453125 0.4375 0.734375 0.84375zm-7.515625 8.609375q0 1.359375 1.078125 2.453125q1.078125 1.09375 2.59375 1.09375q1.53125 0 2.546875 -1.109375q1.015625 -1.125 1.015625 -2.46875q0 -1.34375 -0.96875 -2.5q-0.96875 -1.15625 -2.609375 -1.15625q-1.625 0 -2.640625 1.15625q-1.015625 1.15625 -1.015625 2.53125zm32.150146 -19.46875l7.65625 0.03125q5.984375 0 10.53125 4.328125q4.546875 4.3125 4.546875 10.625q0 6.296875 -4.453125 10.796875q-4.4375 4.5 -10.75 4.5l-7.5625 0q-2.53125 0 -3.140625 -1.03125q-0.5 -0.859375 -0.5 -2.640625l0 -22.984375q0 -0.984375 0.0625 -1.4375q0.0625 -0.453125 0.390625 -1.078125q0.578125 -1.109375 3.21875 -1.109375zm7.65625 22.96875q2.96875 0 5.359375 -2.203125q2.40625 -2.21875 2.40625 -5.5625q0 -3.34375 -2.34375 -5.59375q-2.328125 -2.265625 -5.46875 -2.265625l-3.96875 0l0 15.625l4.015625 0zm17.141937 -3.515625q0 -4.953125 3.46875 -8.171875q3.46875 -3.234375 7.9375 -3.234375q4.46875 0 7.890625 3.203125q3.4375 3.203125 3.4375 8.171875q0 3.421875 -1.78125 6.09375q-1.78125 2.65625 -4.328125 3.921875q-2.53125 1.265625 -5.265625 1.265625q-2.71875 0 -5.28125 -1.34375q-2.5625 -1.34375 -4.328125 -3.96875q-1.75 -2.625 -1.75 -5.9375zm8.640625 2.96875q1.328125 1.0 2.6875 1.0q1.359375 0 2.71875 -1.03125q1.375 -1.03125 1.375 -3.046875q0 -2.03125 -1.28125 -3.015625q-1.28125 -1.0 -2.78125 -1.0q-1.484375 0 -2.765625 1.03125q-1.28125 1.03125 -1.28125 3.046875q0 2.0 1.328125 3.015625zm16.937561 5.96875q-0.78125 -0.5 -0.78125 -1.578125q0 -1.078125 1.578125 -3.265625q0.453125 -0.703125 1.453125 -0.703125q1.015625 0 2.75 1.015625q1.75 1.015625 3.140625 1.015625q2.53125 0 2.53125 -1.0q0 -0.78125 -2.765625 -1.15625q-2.609375 -0.359375 -5.171875 -1.9375q-1.203125 -0.75 -1.984375 -2.328125q-0.78125 -1.59375 -0.78125 -3.78125q0 -6.53125 8.96875 -6.53125q2.921875 0 6.03125 1.40625q1.4375 0.65625 1.4375 1.65625q0 0.984375 -0.90625 2.4375q-0.90625 1.4375 -1.859375 1.4375q-0.5 0 -1.84375 -0.609375q-1.328125 -0.625 -2.90625 -0.625q-2.4375 0 -2.4375 0.90625q0 1.234375 2.8125 1.609375q2.71875 0.296875 5.28125 1.5625q1.203125 0.59375 2.0 2.015625q0.8125 1.421875 0.8125 3.578125q0 2.140625 -0.8125 3.65625q-0.796875 1.5 -2.234375 2.25q-2.65625 1.28125 -6.640625 1.28125q-3.984375 0 -7.671875 -2.3125z" fill-rule="nonzero"/></g></svg>